<?xml version="1.0" encoding="utf-8"?>
<!-- Generator: Adobe Illustrator 17.1.0, SVG Export Plug-In . SVG Version: 6.00 Build 0)  -->
<!DOCTYPE svg PUBLIC "-//W3C//DTD SVG 1.1//EN" "http://www.w3.org/Graphics/SVG/1.1/DTD/svg11.dtd">
<svg version="1.1"
	 id="Layer_1" xmlns:rdf="http://www.w3.org/1999/02/22-rdf-syntax-ns#" xmlns:cc="http://web.resource.org/cc/" xmlns:inkscape="http://www.inkscape.org/namespaces/inkscape" xmlns:dc="http://purl.org/dc/elements/1.1/" xmlns:sodipodi="http://sodipodi.sourceforge.net/DTD/sodipodi-0.dtd" xmlns:svg="http://www.w3.org/2000/svg" inkscape:export-xdpi="90" inkscape:output_extension="org.inkscape.output.svg.inkscape" inkscape:version="0.45.1" inkscape:export-ydpi="90"
	 xmlns="http://www.w3.org/2000/svg" xmlns:xlink="http://www.w3.org/1999/xlink" x="0px" y="0px" viewBox="0 0 400 400"
	 enable-background="new 0 0 400 400" xml:space="preserve">
<sodipodi:namedview  height="400px" width="400px" id="base" inkscape:cx="24" objecttolerance="10.0" inkscape:cy="24" inkscape:zoom="0.71078963" gridtolerance="10.0" borderopacity="1.0" bordercolor="#666666" guidetolerance="10.0" pagecolor="#ffffff" inkscape:current-layer="Layer_1" inkscape:window-width="1280" inkscape:window-y="-4" inkscape:window-height="968" inkscape:pageshadow="2" inkscape:pageopacity="0.0" inkscape:window-x="-4">
	</sodipodi:namedview>
<g id="g3353" transform="translate(-7.7597514,2.668269)">
	<path id="path3130" fill="#FFFFFF" d="M144.6,294.1c0,0,2.3,7.1,0.9,10.3c-1.4,3.1,118.7,1.7,118.7,1.7s-0.6-8,0.6-10
		c1.1-2,0.3-1.4,0.3-1.4L144.6,294.1z"/>
	<path id="path3132" fill="#FFFFFF" d="M157.8,282.1c0,0,22.3-61.1,22.3-63.1c0-2,2.9-1.7,2.9-1.7l-15.1,65.1L157.8,282.1z"/>
	<polygon id="polygon3134" fill="#FFFFFF" points="176,213.1 180.9,210.2 231.9,211.1 236.5,212.8 237.1,210.2 232.2,208.5
		181.7,207.9 175.4,209.4 	"/>
	<path id="path3136" fill="#FFFFFF" d="M183.7,204.8l6.3,0.9L202.8,45l-2.6,1.7c0,0-4.9,61.9-4.9,64.5S184.3,203.9,183.7,204.8z"/>
	<path id="path3138" fill="#FFFFFF" d="M206.5,22.9l4.3,0.3c0,0-0.9-21.1-1.1-23.1c-0.3-2-1.4-1.1-1.4-1.1L206.5,22.9z"/>
	<path id="path3140" fill="#FFFFFF" d="M200.8,30.7c-0.6,0.6,6.3-12.8,15.1-2l-0.1,2.7C215.9,31.5,209,23.2,200.8,30.7z"/>
	<path id="path3142" fill="#FFFFFF" d="M198.5,34.8l0.1,3.9l3.5-3h12.5l0.4,6.8c0,0,2.4-3.7,2.9-4.1c0.6-0.4,0.6-3.5,0.6-3.5
		l-2.8-2.7l-14.3,0.1L198.5,34.8z"/>
	<path id="path3144" fill="#FFFFFF" d="M207.4,45l2.3-0.6c0,0-1.7,148.9,4.3,160.4h-15.4C198.6,204.8,212,47.9,207.4,45z"/>
	<path id="path3146" fill="#FFFFFF" d="M179.2,282.4l3.7,0.3c0,0,11.4-51.4,11.1-50.8c-0.3,0.6-2.9-0.3-2.9-0.3
		S180,281.8,179.2,282.4z"/>
	<path id="path3148" fill="#FFFFFF" d="M217.1,232.8c0.9,0,2.9,0.6,2.9,0.6s16.3,44.8,17.1,47.7c0.9,2.9,0.9,2,0.9,2l-8.3,0.3
		L217.1,232.8z"/>
	<path id="path3150" fill="#FFFFFF" d="M232.2,218.5c0,0.9,20,63.9,20,63.9l-4.3,0.9c0,0-20.8-64.2-21.7-64.2
		C225.4,219.1,232.2,218.5,232.2,218.5z"/>
	<path id="path3152" fill="#FFFFFF" d="M219.4,204.8h8.6c0,0-13.4-152.9-13.4-154.1C214.5,49.6,218.8,203.9,219.4,204.8z"/>
	<path id="path3154" fill="#FFFFFF" d="M178.4,213.9c0,0,1.1,1.3,1,2c-0.1,0.7,53.2,0.9,53.2,0.9s0.6-1.6,1-1.9
		C234.1,214.6,178.4,213.9,178.4,213.9z"/>
	<path id="path3156" fill="#FFFFFF" d="M145.3,283.1c0.4,0,119.6,0.9,119.6,0.9s-1.1,1.9-1.1,3c0,1.1-115-0.3-115.4,0.6
		C147.9,288.4,145.3,283.1,145.3,283.1z"/>
	<path id="path3158" fill="#FFFFFF" d="M144.2,307.2c-0.1,0.4-31.4,45.8-31.4,45.8s3.6,3.3,4,3.1c0.4-0.1,21.4-34,22.4-34.1
		c1-0.1,7.3-12,6.8-12.7C145.6,308.7,144.2,307.2,144.2,307.2z"/>
	<path id="path3160" fill="#FFFFFF" d="M149.2,383.4c0-0.6,7.8-25.3,21.8-35.1c14-9.8,25.3-11.6,26.5-11.7c1.3-0.1,13.3-0.1,18.7,1
		c5.4,1.1,22.7,11,24,12.7c1.3,1.7,9,12.6,10.8,15.3c0.1,2.5,2.4,2.1,3.3,7.8c10.3-2,0,0,0,0s1.7-1.4,3.6-2.4c1.9-1,4.4-2,4.4-2
		s-9.8-18.7-27.4-32.4c-17.5-13.7-75-17-86.9,46.7L149.2,383.4z"/>
	<path id="path3162" fill="#FFFFFF" d="M266.8,310.1c0,0,29.4,44.2,29.7,45.1c0.3,0.9-6.6,4.1-6.6,4.1l-24.7-48.8L266.8,310.1z"/>
	<path id="path3164" fill="#FFFFFF" d="M146.1,322.9c-0.5,0.8-3.6,6-3.6,6l-3-4.7L146.1,322.9z"/>
	<path id="path3166" fill="#FFFFFF" d="M130.5,338.6c0.3-0.1,5.2,0.1,5.2,0.1l3.4-5.9L130.5,338.6z"/>
	<path id="path3168" fill="#FFFFFF" d="M128.4,341.4l5.2,0.4l-4,5.5l-1.5-5.6C128.2,341.7,128.5,341.2,128.4,341.4z"/>
	<polygon id="polygon3170" fill="#FFFFFF" points="149.5,337.6 153.3,332.3 145.3,331.5 	"/>
	<polygon id="polygon3172" fill="#FFFFFF" points="147.5,329.1 155.2,329.5 158.2,324 	"/>
	<polygon id="polygon3174" fill="#FFFFFF" points="149.2,322.1 144.6,327.9 155.9,323 	"/>
	<polygon id="polygon3176" fill="#FFFFFF" points="146.9,342.9 143.1,348.4 133.5,348.6 	"/>
	<polygon id="polygon3178" fill="#FFFFFF" points="141.4,351.2 137.3,356.9 132.8,351 	"/>
	<polygon id="polygon3180" fill="#FFFFFF" points="130.1,351.9 134.6,357.8 121.6,355.5 	"/>
	<polygon id="polygon3182" fill="#FFFFFF" points="125.7,345.4 120.3,352.8 128.1,349 	"/>
	<polygon id="polygon3184" fill="#FFFFFF" points="142.8,333.2 138.7,338.7 146.7,338.7 	"/>
	<path id="path3186" fill="#FFFFFF" d="M184.5,222.5c0.4,0.4,1.9,2.6,1.9,2.6l0.6-4.6L184.5,222.5z"/>
	<path id="path3188" fill="#FFFFFF" d="M181.9,219l2,2.5l2.8-2.7l-4.9-0.9c0,0-2,8.1-1.9,8.2c0.2,0.1,5,0.2,5,0.2l-1.6-2.9l-2.5,1.1
		L181.9,219z"/>
	<polygon id="polygon3190" fill="#FFFFFF" points="189.8,218.5 194.6,218.8 191.9,221.5 	"/>
	<polygon id="polygon3192" fill="#FFFFFF" points="191.4,223.1 188.4,226.1 192.7,226.1 	"/>
	<polygon id="polygon3194" fill="#FFFFFF" points="188.3,219.8 187.7,224.9 190.5,222.5 	"/>
	<path id="path3196" fill="#FFFFFF" d="M194.9,220.4c0,0.2-0.4,4.4-0.4,4.4l-1.9-2.2L194.9,220.4z"/>
	<polygon id="polygon3198" fill="#FFFFFF" points="197,220 196.1,225.1 199.6,222.7 	"/>
	<polygon id="polygon3200" fill="#FFFFFF" points="198.2,218.7 204.5,218.9 201.1,221.8 	"/>
	<path id="path3202" fill="#FFFFFF" d="M200.7,223.2c-0.2,0.2-3.5,2.8-3.5,2.8l6.7,0.3l-3.2-3.3V223.2z"/>
	<polygon id="polygon3204" fill="#FFFFFF" points="202.2,222.4 205.3,225.6 205.5,219.4 	"/>
	<polygon id="polygon3206" fill="#FFFFFF" points="206.7,219.7 206.5,225.9 209.7,222.9 	"/>
	<polygon id="polygon3208" fill="#FFFFFF" points="207.7,226.6 211.1,223.6 214.9,226.5 	"/>
	<polygon id="polygon3210" fill="#FFFFFF" points="215.3,220.3 215.3,225.1 212.5,222.6 	"/>
	<polygon id="polygon3212" fill="#FFFFFF" points="220.9,232.9 226.2,236.1 226.2,232.7 	"/>
	<polygon id="polygon3214" fill="#FFFFFF" points="202.8,37.3 214.1,37.2 208.9,43.6 	"/>
	<path id="path3216" fill="#FFFFFF" d="M218.2,39.6c-0.2,0.4-3.1,5.1-3.1,5.1l0.4,10.8l0.8-6.8l1.6-2.2L218.2,39.6z"/>
	<path id="path3218" fill="#FFFFFF" d="M198.9,39.6c0,0,3,3.7,2.9,4.4c-0.1,0.6-2,1.9-2,1.9l-1.1-0.3L198.9,39.6z"/>
	<path id="path3220" fill="#FFFFFF" d="M195.3,248.7c0.2,0,21.2,0.4,21.2,0.4l4.8,32.5l4.9-0.1l-9.5-35.7l-21.5,1.4L195.3,248.7z"/>
	<path id="path3222" fill="#FFFFFF" d="M194.6,247.4c0,0.2-2.3,27.7-5.3,34l-2.9,0.1l7.4-34.1L194.6,247.4L194.6,247.4z"/>
	<polygon id="polygon3224" fill="#FFFFFF" points="195.9,237.7 195.2,244.2 215.6,244.6 216.2,238.4 215.7,238.3 214.8,242.7
		197.6,242.7 197,238 207.4,237.8 211.5,237.9 195.8,236.4 	"/>
	<path id="path3226" fill="#FFFFFF" d="M220,234.8c0.6,0.2,6.6,3.6,6.6,3.6s-3.8,3.4-3.9,3.6C222.5,242.3,220,234.8,220,234.8z"/>
	<polygon id="polygon3228" fill="#FFFFFF" points="222.5,244.6 227.4,240.7 228.3,245 222.5,245 	"/>
	<polygon id="polygon3230" fill="#FFFFFF" points="237.6,270.9 243.5,275.2 239.7,277 	"/>
	<path id="path3232" fill="#FFFFFF" d="M224.3,246.8c0.4,0.1,4.4,0.1,4.4,0.1l1.3,4.1L224.3,246.8z"/>
	<path id="path3234" fill="#FFFFFF" d="M185.1,238.3c0.1-0.2,5.8-3.5,5.8-3.5l-1.6,7.8L185.1,238.3z"/>
	<polygon id="polygon3236" fill="#FFFFFF" points="185.7,232.2 184.9,236.1 190.4,232.4 	"/>
	<polygon id="polygon3238" fill="#FFFFFF" points="183.8,232.7 178.7,232 182.7,236.1 	"/>
	<path id="path3240" fill="#FFFFFF" d="M177.9,234.8c0.3,0.2,3.9,3.3,3.9,3.3l-5.6,3.6L177.9,234.8z"/>
	<polygon id="polygon3242" fill="#FFFFFF" points="184.2,240 182.8,244.5 188.7,244.9 	"/>
	<polygon id="polygon3244" fill="#FFFFFF" points="187.7,248.8 181,253.2 185.8,257.6 	"/>
	<polygon id="polygon3246" fill="#FFFFFF" points="184.6,264 176.6,268.6 182.3,274.2 	"/>
	<path id="path3248" fill="#FFFFFF" d="M175.2,271c-0.2,0.2-3.9,10.4-3.9,10.4l8.1-4.5L175.2,271z"/>
	<polygon id="polygon3250" fill="#FFFFFF" points="179.6,255.3 176.7,265.5 182.9,262.1 183.8,258.9 	"/>
	<path id="path3252" fill="#FFFFFF" d="M181.6,241.1c-0.1,0.2-0.9,4.1-0.9,4.1l-5.4-0.7L181.6,241.1z"/>
	<path id="path3254" fill="#FFFFFF" d="M170.4,322.8l-2.2-3.5c-0.3-0.6-0.9-1-1.7-1c-1,0-1.9,0.8-1.9,1.8c0,0.4,0.1,0.7,0.3,1
		c0.1,0.1,0.1,0.2,0.2,0.2l2.3,3.2L170.4,322.8z"/>
	<path id="path3256" fill="#FFFFFF" d="M174.8,320.9l-1.8-3.3c-0.3-0.6-0.8-1-1.5-1c-1-0.1-1.8,0.6-1.8,1.5c0,0.3,0.1,0.7,0.2,0.9
		c0,0.1,0.1,0.1,0.2,0.2l2,3L174.8,320.9z"/>
	<path id="path3258" fill="#FFFFFF" d="M176.3,320.7l3.5-1.1c0,0-1.4-4-3.2-3C176.5,316.6,174.6,317.9,176.3,320.7
		C177.9,323.3,176.3,320.7,176.3,320.7z"/>
	<path id="path3260" fill="#FFFFFF" d="M158.8,329.3c0,0.1,2.7-1.7,2.7-1.7S158.9,327.2,158.8,329.3z"/>
	<path id="path3262" fill="#FFFFFF" d="M162.9,326.8c0.3-0.2,3-1.8,3-1.8l-0.9-1.5c0,0-3.4-1.2-3.1,1.8L162.9,326.8z"/>
	<path id="path3264" fill="#FFFFFF" d="M181,319.2l3.6-0.6l-0.1-1c0,0-2.4-2.1-3.6,0.5L181,319.2z"/>
	<path id="path3266" fill="#FFFFFF" d="M186,318.1l3.6-0.6C189.5,317.5,187.7,315.7,186,318.1z"/>
	<path id="path3268" fill="#FFFFFF" d="M175.6,245.7c0.7,0.2,4.1,0.9,4.1,0.9l-1,3.9l-3.9-3.4L175.6,245.7z"/>
	<path id="path3270" fill="#FFFFFF" d="M174.6,249.3c-0.3,1,3.4,3.6,3.4,3.6l-4.9,2.4C173.1,255.3,174.7,249.1,174.6,249.3z"/>
	<path id="path3272" fill="#FFFFFF" d="M171.9,259.7c0.3,0,4.3,0.4,4.3,0.4l1.1-4.8l-5.4,3l0.1,1.1l3.6,2.5l-1.5,4.4l-3.1-4.8l1.9,9
		l-5.5,6.8L171.9,259.7z"/>
	<polygon id="polygon3274" fill="#FFFFFF" points="218.6,226.7 223.5,226.4 220.6,223.9 	"/>
	<polygon id="polygon3276" fill="#FFFFFF" points="144,319.8 161.5,320.3 169.7,307.7 159.9,317 	"/>
	<path id="path3278" fill="#FFFFFF" d="M225.3,318.4l3.5,1.1C228.8,319.4,228.7,315.5,225.3,318.4z"/>
	<path id="path3280" fill="#FFFFFF" d="M251.2,325.4c0.2,0.4,2.8,5.2,2.8,5.2l8.8-0.3l-7.5-1.4L251.2,325.4z"/>
	<path id="path3282" fill="#FFFFFF" d="M255.9,333.2c0.4,0.6,3.4,5.5,3.4,5.5l4.3-5.1l-4.3,2.1L255.9,333.2z"/>
	<path id="path3284" fill="#FFFFFF" d="M261.9,343.6c0.3,0.5,3.6,5.9,3.6,5.9l4.9-0.1l-4.3-1.6L261.9,343.6z"/>
	<path id="path3286" fill="#FFFFFF" d="M230.2,320.2l20,10.7c0,0-16.4-13.8-18.1-13.7c-1.7,0.1-2,2.4-2,2.7"/>
	<polygon id="polygon3288" fill="#FFFFFF" points="225.5,250.4 230.5,253.7 227.4,257.4 	"/>
	<polygon id="polygon3290" fill="#FFFFFF" points="231.4,256.1 228.3,260.6 232.9,262.4 	"/>
	<polygon id="polygon3292" fill="#FFFFFF" points="232.2,269.1 236.6,274.2 234.4,276.3 	"/>
	<polygon id="polygon3294" fill="#FFFFFF" points="229,223.8 227.1,226.2 230.3,226.6 	"/>
	<path id="path3296" fill="#FFFFFF" d="M189.1,200.9c0.7,0.6,3,2.7,3,2.7l5.9-6.2l-2.8-4L189,198L189.1,200.9z"/>
	<path id="path3298" fill="#FFFFFF" d="M190.7,188.6c0.3,0.5,2.6,4.4,2.6,4.4l-4,2.7L190.7,188.6z"/>
	<path id="path3300" fill="#FFFFFF" d="M190.5,182.8c0.3,0.6,4.1,5.9,4.1,5.9l4.9-5l-3.6-5.4L190.5,182.8z"/>
	<polygon id="polygon3302" fill="#FFFFFF" points="191.1,180.3 194.3,176.7 191.1,172.5 	"/>
	<polygon id="polygon3304" fill="#FFFFFF" points="191.5,167.8 196.5,164.3 192.5,159.5 	"/>
	<polygon id="polygon3306" fill="#FFFFFF" points="193.3,148.3 192.1,155.7 197.8,151.9 	"/>
	<polygon id="polygon3308" fill="#FFFFFF" points="193.5,144.3 199,139.9 194.5,135.3 193.3,144.8 	"/>
	<polygon id="polygon3310" fill="#FFFFFF" points="194.7,132.4 194.8,132.9 200.4,128.5 195.2,123.9 	"/>
	<polygon id="polygon3312" fill="#FFFFFF" points="196.4,112.5 195.4,121.7 200.4,118.1 	"/>
	<polygon id="polygon3314" fill="#FFFFFF" points="196.8,111.3 201.1,107.7 197,103.6 	"/>
	<polygon id="polygon3316" fill="#FFFFFF" points="197.6,101.9 201.7,99 197.9,94.7 	"/>
	<polygon id="polygon3318" fill="#FFFFFF" points="198.1,93.4 202.3,90.1 198.5,85.7 	"/>
	<polygon id="polygon3320" fill="#FFFFFF" points="198.7,84.9 202.3,82.5 199.3,78.2 	"/>
	<polygon id="polygon3322" fill="#FFFFFF" points="199.6,77.1 203,74.4 200.2,71.8 	"/>
	<path id="path3324" fill="#FFFFFF" d="M200.1,70.2l3-2.2c0,0-2.2-3.4-2.2-3C200.9,65.4,200.1,70.2,200.1,70.2z"/>
	<polygon id="polygon3326" fill="#FFFFFF" points="200.4,63.3 203.8,61.6 200.9,58.2 	"/>
	<polygon id="polygon3328" fill="#FFFFFF" points="201.4,57.6 204.1,55.6 201.4,52.7 	"/>
	<polygon id="polygon3330" fill="#FFFFFF" points="202.1,51.5 204,50.3 202.6,48 	"/>
	<path id="path3332" fill="#FFFFFF" d="M194,172.6c0.4,0.3,1.9,3.3,1.9,3.3l4.6-5.3l-3.9-0.3l-2.3-3L194,172.6z"/>
	<polygon id="polygon3334" fill="#FFFFFF" points="194.8,159.4 197.4,162.6 200.8,159.6 198,159.3 195.6,155.4 194.6,155.7 	"/>
	<polygon id="polygon3336" fill="#FFFFFF" points="195.7,147.6 198.7,150.4 201.6,147.2 198.1,146.9 197.1,142.9 195.7,143.7 	"/>
	<polygon id="polygon3338" fill="#FFFFFF" points="196.8,135.3 200.3,138.7 202.3,137.6 199.4,135.6 201.6,130 196.7,133.6 	"/>
	<polygon id="polygon3340" fill="#FFFFFF" points="201,127.2 197.4,124.6 197.6,122.6 201.8,119.1 200.4,122.8 	"/>
	<path id="path3346" fill="#FFFFFF" d="M277,370.6c-74.1-122.8-146.5,0-145.4-1.3c74.2-89.1,120.7-28.1,136.9,1.3H277z"/>
</g>
</svg>
